<?xml version="1.0" encoding="utf-8"?>
<!-- Generator: Adobe Illustrator 16.0.0, SVG Export Plug-In . SVG Version: 6.00 Build 0)  -->
<!DOCTYPE svg PUBLIC "-//W3C//DTD SVG 1.1//EN" "http://www.w3.org/Graphics/SVG/1.1/DTD/svg11.dtd">
<svg version="1.1" id="Warstwa_1" xmlns="http://www.w3.org/2000/svg" xmlns:xlink="http://www.w3.org/1999/xlink" x="0px" y="0px"
	 width="400.501px" height="347.889px" viewBox="116.543 209.799 400.501 347.889"
	 enable-background="new 116.543 209.799 400.501 347.889" xml:space="preserve">
<path fill="#FFD6E8" d="M430.542,233.514c29.376,12.852,41.616,58.752,58.752,104.652s39.474,91.494,20.502,116.28
	c-18.666,24.479-78.642,27.846-119.646,46.206c-40.698,18.054-62.425,51.407-87.822,56.304
	c-25.398,5.202-54.468-18.054-64.26-46.206c-10.098-28.458-0.918-61.812-22.644-93.636c-22.032-31.824-74.97-62.118-92.412-102.51
	c-17.136-40.698,1.224-92.106,37.944-102.51c36.414-10.71,90.576,19.278,141.678,24.174
	C353.43,241.164,400.86,220.662,430.542,233.514z"/>
</svg>
