<?xml version="1.0" encoding="utf-8"?>
<!-- Generator: Adobe Illustrator 16.0.0, SVG Export Plug-In . SVG Version: 6.00 Build 0)  -->
<!DOCTYPE svg PUBLIC "-//W3C//DTD SVG 1.1//EN" "http://www.w3.org/Graphics/SVG/1.1/DTD/svg11.dtd">
<svg version="1.1" id="Warstwa_1" xmlns="http://www.w3.org/2000/svg" xmlns:xlink="http://www.w3.org/1999/xlink" x="0px" y="0px"
	 width="1285.791px" height="595.438px" viewBox="6.88 379.181 1285.791 595.438"
	 enable-background="new 6.88 379.181 1285.791 595.438" xml:space="preserve">
<g>
	<path d="M112.503,665.57c7.021,4.762,14.529,1.856,22.197,2.341c23.814,0.562,46.738,0.32,70.386-2.509
		c3.388-0.161,5.327,4.842,9.527,3.793c0.807-0.887,2.582,0.727,3.389-0.161c4.197-1.052,10.169-0.485,12.592-3.149
		c4.036-4.441-3.714-6.618-4.764-10.818c-2.827-5.81-6.457-10.736-9.284-16.547c-1.94-5.004-6.215-5.648-11.303-5.406
		c-16.871,2.502-34.551,5.895-51.417,8.401c-13.479,2.344-27.85,3.877-42.297,3.715c-11.948-1.131-19.293,5.167-25.749,12.27
		c-2.422,2.665-4.761,7.021-8.313,3.792c-3.553-3.229,2.261-6.054,3.793-9.528c1.613-1.774,5.004-1.938,5.649-6.214
		c-8.556-1.29-17.032-0.886-24.779-3.065c-1.694,0.08-3.472-1.535-3.552-3.229c0.726-2.582,2.5-0.968,4.197-1.052
		c10.334,2.905,20.504,2.42,30.593,0.241c7.588-1.211,12.349-8.231,18.808-15.338c-17.032-0.886-31.48-1.047-46.818-2.015
		c-5.975-0.563-11.863,0.566-18.726-0.804c-1.694,0.081-3.388,0.162-3.552-3.229c-0.081-1.694,1.535-3.472,4.116-2.746
		c7.75,2.178,15.338,0.966,22.761-3.636c1.613-1.775,5.166,1.454,7.75,2.177c13.723,2.744,28.093,1.211,42.54,1.367
		c6.782-0.323,9.847-7.267,16.547-9.284c-4.44-4.036-10.334-2.906-14.61-3.551c-16.226-1.773-33.254-2.662-51.016-0.962
		c-4.197,1.052-10.25-1.21-9.846,7.266c0.081,1.695-0.726,2.582-2.422,2.665c-1.694,0.082-1.774-1.612-2.665-2.422
		c-1.939-5.004,2.018-11.141,10.494-11.545c18.646-0.889,38.992-1.859,57.794,0.642c12.835,1.938,25.588,2.176,38.181-0.968
		c5.894-1.13,11.057,0.321,17.031,0.885c-4.113,2.754-10.085,2.188-13.314,5.74c6.94,3.068,13.642,1.051,19.855,6.699
		c-9.363-0.402-18.725-0.804-27.285-2.097c-9.444-2.097-16.145-0.079-20.825,8.636c11.222,3.712,22.117,0.646,32.447,3.549
		c-9.929,5.569-20.337,0.97-31.236,4.04c13.642,1.049,27.366,3.79,41.007,4.842c7.67,0.481,16.146,0.077,23.814,0.561
		c3.389-0.162,5.975,0.564,4.036-4.439c-4.763-10.818-11.223-21.551-14.371-34.146c-1.052-4.197-6.299-7.346-9.687-7.184
		c-10.977,1.372-17.275-5.973-25.912-8.957c-25.024-8.15-48.514-19.772-75.476-15.087c-1.694,0.081-2.582-0.726-3.31,1.858
		c36.324,13.561,75.554,16.786,110.347,33.815c-11.141-2.018-22.279-4.033-34.307-6.858c-32.613-6.939-64.979-8.795-97.995-6.371
		c-8.476,0.404-17.112-2.579-22.846,1.939c-7.424,4.601-12.673,1.455-18.646,0.889c-1.694,0.08-5.087,0.243-5.247-3.149
		c-0.162-3.388,2.342-4.359,5.73-4.52c17.919,1.691,36.403-2.585,54.326-0.891c13.642,1.05,28.092,1.21,42.458-0.328
		c-7.749-2.177-15.496-4.356-24.056-5.65c-8.556-1.29-17.113-2.579-25.75-5.568c-5.166-1.454-7.669-0.484-10.011,3.875
		c-1.613,1.775-1.454,5.167-4.923,3.634c-2.582-0.726-1.858-3.31-1.939-5.004c2.342-4.359-1.13-5.894-4.521-5.729
		c-9.444-2.096-19.617-1.614-29.141-5.404c-3.472-1.535-7.75-2.177-5.408-6.536c2.261-6.053,5.087-0.243,7.669,0.483
		c14.609,3.55,29.302,8.798,44.476,6.375c8.476-0.404,17.758-1.696,26.153-3.794c-15.497-4.357-30.433-14.687-47.304-12.184
		c-4.197,1.052-6.862-1.371-7.105-6.458c-0.162-3.388-7.912-5.571-2.986-9.201c4.923-3.634,6.941,3.067,10.416,4.6
		c13.73,2.741,27.452,5.484,39.562,10.003c12.108,4.519,25.105,9.844,38.747,10.894c-3.792-8.314-10.738-11.381-16.873-15.336
		c-30.111-25.749-51.183-57.873-71.446-90.885c-0.968-2.501-1.939-5.004-3.792-8.314c-1.939-5.004-3.876-10.011,4.761-7.021
		c5.166,1.455,4.117-2.746,7.424-4.602c-0.804,18.725,7.592,34.466,19.215,46.658c17.034,18.724,29.223,42.778,50.374,58.763
		c13.239,10.413,26.56,22.52,43.672,25.1c-0.968-2.5-9.042-11.459-14.45-18.001c-22.28-21.872-45.452-44.555-63.694-70.87
		c-7.266-9.846-13.643-18.889-18.406-29.706c-0.968-2.5-4.602-7.424,0.402-9.363c3.31-1.858,5.247,3.148,6.215,5.649
		c8.801,24.216,25.025,43.831,42.866,61.667c19.699,21.146,39.476,43.99,60.789,63.362c3.553,3.229,5.492,8.233,12.268,7.91
		c-2.018-6.701-7.267-9.846-11.707-13.882c-16.146-17.917-33.097-34.951-49.243-52.868c-19.7-21.147-31.889-45.201-41.658-71.918
		c-0.081-1.694-0.968-2.5-1.052-4.197c0.896,0.803-0.073-1.697,3.315-1.859c3.388-0.162,3.552,3.229,3.633,4.923
		c1.614,16.064,9.85,28.41,16.472,42.538c6.619,14.124,17.358,25.506,28.096,36.887c20.586,21.953,39.477,43.99,60.871,65.056
		l5.327,4.842c1.774,1.614,4.44,4.036,6.053,2.262c2.423-2.666,1.455-5.167-1.21-7.589c-27.527-25.021-51.019-54.481-74.512-83.944
		c-7.267-9.847-10.415-22.441-16.068-34.063c-0.081-1.694-1.858-3.31-2.746-4.117c-0.968-2.5-4.521-5.729-0.324-6.782
		c2.5-0.968,4.359,2.342,5.327,4.842c5.812,15.012,12.435,29.139,21.638,43.993c11.95,18.97,28.012,35.19,42.382,51.498
		c7.186,8.153,16.066,16.224,24.059,23.489c3.552,3.229,6.134,3.955,9.363,0.402c2.341-4.359,6.458-7.105,13.159-9.123
		c-13.239-10.413-23.894-20.098-32.132-32.447c5.166,1.454,7.105,6.458,11.545,10.494l16.873,15.336
		c4.44,4.036,10.493,6.297,17.113,2.58c4.922-3.633,10.897-3.069,16.87-2.502c1.694-0.081,3.553,3.229,5.087-0.243
		c0.726-2.582-0.968-2.5-2.746-4.116c-11.626-12.188-19.133-27.119-27.449-41.166c-4.682-9.123-8.558-19.128-15.741-27.284
		c-8.961-9.766-18.003-21.231-26.963-30.996c-8.96-9.766-17.112-20.421-27.771-30.109c-1.775-1.613-3.552-3.229-0.243-5.088
		s9.202-2.986,11.057,0.322c7.591,16.628,25.672,21.714,34.065,37.451c9.284,16.547,21.069,32.126,31.162,47.783
		c1.859,3.31,5.328,4.842,5.492,8.233c0.968,2.5,8.718,4.683,1.292,9.282c0,0,0.968,2.5,1.858,3.31
		c5.57,9.93,14.45,18.001,22.524,26.96c2.665,2.423,6.133,3.955,9.527,3.793c8.475-0.405,15.497,4.357,24.863,4.762
		c1.694-0.081,2.582,0.726,4.278,0.647c-3.876-10.01-10.978-16.466-17.277-23.812c-13.644-18.889-27.287-37.777-42.542-54.885
		c-13.401-13.801-27.608-26.715-43.432-37.857l-2.666-2.422c2.825-12.028-9.123-13.159-14.53-19.695
		c-1.775-1.613-2.665-2.422-2.827-5.811c6.862,1.371,12.189,6.213,16.629,10.249c22.119,18.484,40.927,38.821,59.011,61.746
		c15.337,18.808,29.062,39.391,45.289,59.001c2.666,2.423,5.327,4.842,6.299,7.346l1.613-1.774
		c-7.267-9.846-13.724-20.583-20.991-30.428c-3.634-4.923-8.96-9.766-13.482-15.496c-3.633-4.923-5.569-9.93-4.118-15.093
		c17.277,23.812,34.554,47.624,50.214,73.207c4.602,7.423,9.768,8.878,15.901,12.833c19.215,10.977,37.697,24.536,47.226,46.167
		c5.651,11.624,12.189,24.055,15.339,36.647c1.052,4.197,2.905,7.507,5.57,9.93c3.552,3.229,3.714,6.617,1.372,10.977
		c-1.454,5.165-4.6,10.415,4.038,13.398c6.862,1.37,11.546,10.495,20.744,7.505c2.018,6.701,8.8,6.378,13.968,7.829
		c3.472,1.535,7.75,2.178,11.947,1.131c-12.593-14.688-24.217-26.879-35.924-40.762c-13.48-15.494-23.734-34.547-35.603-51.816
		c-8.154-10.653-10.495-24.135-16.955-34.869c-21.234-35.518-35.847-74.745-59.499-107.598
		c-8.231-12.349-18.083-22.924-29.545-31.721c-2.665-2.423-6.134-3.955-3.714-6.617c2.422-2.666,7.507-2.905,9.363,0.402
		c4.602,7.424,13.32,12.107,17.921,19.531c5.492,8.233,11.866,17.272,19.778,22.843c16.792,13.642,25.35,32.771,35.603,51.817
		c12.111,22.358,17.517,46.736,29.629,69.092c12.189,24.054,27.691,46.254,44.806,66.672c7.186,8.151,11.866,17.271,19.858,24.536
		c6.299,7.346,13.32,12.108,22.848,15.9c2.581,0.726,5.975,0.564,4.44,4.036c-0.648,4.278-4.197,1.053-5.894,1.131
		c-1.694,0.08-4.359-2.342-5.895,1.13c6.134,3.955,13.723,2.743,21.472,4.921c3.472,1.534,6.862,1.37,11.141,2.018
		c2.582,0.726,6.053,2.262,7.588-1.21c1.535-3.473-1.13-5.895-4.602-7.425c-13.077-7.02-22.847-15.9-33.502-25.585
		c-17.679-14.448-27.931-33.495-36.57-54.324c-2.905-7.508-8.317-14.047-11.225-21.552c-9.688-25.023-19.376-50.045-34.794-70.547
		c-14.531-19.695-28.255-40.277-43.673-60.779c-17.277-23.813-38.425-39.793-63.695-53.028c-3.472-1.535-5.166-1.455-8.557-1.29
		c-2.581-0.726-6.782,0.324-5.246-3.148c0.726-2.581,1.454-5.165,5.729-4.521c1.694-0.081,1.694-0.081,3.388-0.162
		c-1.858-3.31-4.44-4.035-7.021-4.761c-1.775-1.613-5.166-1.454-3.633-4.923c1.535-3.472,5.004-1.939,6.781-0.324
		c6.941,3.068,15.581,6.054,20.908,10.896c14.208,12.914,30.756,21.469,44.157,35.27c18.727,18.643,31.645,40.113,45.45,62.396
		c15.742,27.284,29.792,54.646,42.224,83.788c8.721,22.522,17.518,46.735,32.858,65.54c7.267,9.846,16.147,17.917,26.801,27.602
		c-1.373-10.977-9.284-16.548-15.499-22.196c-9.848-10.572-15.499-22.195-22.041-34.629c-7.425-13.236-14.047-27.364-18.972-41.57
		c-11.628-30.027-19.942-61.908-10.422-93.796c4.356-15.496,21.467-30.755,36.725-31.484c6.782-0.324,12.109,4.519,17.355,7.667
		l2.666,2.423c3.387-0.161,4.359,2.341,3.633,4.923c-0.649,4.279-4.036,4.439-6.617,3.714c-4.278-0.648-7.75-2.176-11.141-2.019
		c-15.416-2.663-20.825,8.637-28.816,19.217c-12.755,17.598-10.975,37.053-7.505,56.423c6.864,37.051,28.742,68.286,46.423,100.573
		c3.715,6.617,8.232,12.35,13.563,17.195c10.654,9.685,19.699,21.147,30.354,30.832c4.439,4.035,11.221,3.712,14.045,9.524
		c0.968,2.501,5.247,3.149,3.714,6.617l0.968,2.501c12.754,0.244,24.137,7.344,37.779,8.394c1.694-0.08,5.166,1.455,5.894-1.13
		c0.726-2.58-0.243-5.087-2.018-6.7c-15.26-17.111-29.625-33.415-49.727-45.199c-9.605-5.489-18.408-11.865-25.672-21.714
		c-5.408-6.537-14.126-11.22-21.231-17.678c-4.44-4.035-8.88-8.072-10.819-13.076c-7.51-14.935-19.132-27.118-24.947-42.133
		c-5.813-15.012-10.819-30.917-10.741-47.062c-0.243-5.087,1.29-8.556,3.712-11.222c2.342-4.359,8.152-7.186,1.938-12.835
		c0,0-0.081-1.694,0.726-2.581c0.807-0.888,3.31-1.858,5.087-0.243c4.44,4.036,7.186,8.152,11.626,12.188
		c2.665,2.422,1.13,5.895-3.148,5.246c-8.557-1.289-10.817,4.764-12.188,11.626c-1.29,8.556,0.002,17.838,2.1,26.233
		c0.081,1.694,0.968,2.5,1.858,3.31c6.134,3.955,6.458,10.736,8.478,17.435c5.731,13.318,16.39,23.006,24.621,35.355
		c10.978,16.467,26.077,30.189,42.707,40.438c7.021,4.761,13.32,12.107,19.618,19.453c8.073,8.958,16.873,15.336,27.366,21.632
		c-2.018-6.7-7.425-13.236-11.058-18.159c-18.813-20.341-31.002-44.396-41.497-68.53c-9.364-18.241-16.225-37.454-29.711-52.952
		c-3.633-4.922-6.619-14.124-17.437-9.361c-4.197,1.052-3.633-4.923-2.905-7.507c2.261-6.053,9.041-6.38,12.673-1.456
		c10.819,13.075,22.523,26.96,29.223,42.779c6.783,17.515,16.875,33.174,27.852,49.641c6.379,9.04,11.143,19.857,15.903,30.671
		c7.591,16.629,20.911,28.736,34.149,39.148c17.76,16.143,42.624,20.905,61.916,33.572c0.888,0.807,2.581,0.726,5.087-0.242
		c-7.186-8.152-16.792-13.643-25.509-18.319c-23.57-13.316-40.686-33.741-55.297-55.129c-12.837-19.777-25.674-39.554-30.198-63.121
		c-2.343-13.48-8.075-26.797-3.634-40.604c0.726-2.581,1.455-5.166,4.842-5.327c3.388-0.162,2.666,2.422,2.827,5.811
		c-2.903,28.174,6.785,53.197,18.977,77.247c10.252,19.048,21.315,37.212,36.409,50.931c12.432,11.301,24.946,24.295,40.686,33.739
		c3.471,1.536,7.827,3.875,9.687,7.185c0.887,0.807,2.664,2.422,4.277,0.647s-0.16-3.387-1.939-5.003
		c-7.105-6.459-13.4-13.802-21.393-21.067c-14.287-14.605-27.77-30.107-39.637-47.377c-5.409-6.536-9.124-13.159-14.531-19.695
		c-1.858-3.31-2.827-5.81-4.682-9.123c-1.859-3.31-0.324-6.782,3.067-6.94c4.197-1.052,3.553,3.229,3.634,4.923
		c3.15,12.593,10.495,24.135,19.455,33.899c18.89,22.039,38.669,44.879,60.063,65.945c9.768,8.877,20.261,15.173,31.644,22.273
		c11.381,7.104,23.251,6.537,34.307,6.859c1.694-0.082,4.278,0.647,5.004-1.939c0.726-2.582-1.858-3.311-4.44-4.036
		c-23.489-11.622-42.942-27.683-60.867-47.217c-26.801-27.603-40.365-62.636-54.735-96.781
		c-9.607-23.329-17.602-48.433-26.399-72.646c-2.986-9.201-10.898-14.772-14.693-23.083c-12.03-20.663-24.867-40.438-44.24-54.807
		c-11.461-8.797-23.894-20.098-41.493-15.011c-4.197,1.052-6.862-1.371-7.021-4.761c-0.162-3.389,2.341-4.359,4.842-5.328
		c8.314-3.792,16.145,0.079,23.084,3.147c4.359,2.342,7.021,4.761,11.38,7.103c26.883,11.46,44.075,33.575,58.043,59.246
		c18.649,34.786,31.489,72.402,44.323,110.02c12.759,35.921,30.436,68.204,59.741,94.842c5.327,4.843,9.041,11.459,14.372,16.305
		c7.992,7.264,15.9,12.832,27.203,18.239c-6.379-9.04-13.563-17.195-19.052-25.426c-23.733-34.548-39.154-72.888-46.18-113.329
		c-2.1-8.395-2.503-16.87-2.907-25.345c0.161-14.451,8.877-27.606,22.275-31.644c12.512-4.844,28.008-0.488,34.467,10.246
		c1.859,3.31,2.827,5.811-0.401,9.363c-1.858-3.31-2.905-7.507-6.38-9.04c-3.472-1.535-4.359-2.342-5.895,1.13
		c-2.422,2.665-4.196,1.052-6.781,0.323c-15.58-6.053-20.584-4.114-24.941,11.382c-4.438,13.803-5.488,27.444-1.45,40.843
		c11.146,37.696,23.977,75.311,46.745,107.354c7.267,9.846,16.146,17.918,26.64,24.215c3.472,1.534,8.557,1.289,6.299,7.345
		c-2.342,4.359-5.003,1.94-8.477,0.404c-0.887-0.808-1.693,0.081-3.387,0.163c10.738,11.381,24.296,10.733,36.165,10.168
		l20.34-0.971c2.501-0.968,5.087-0.243,7.508-2.905c1.612-1.774,2.342-4.358-1.053-4.197c-7.588,1.212-6.134-3.954-7.187-8.152
		c-2.985-9.202-10.896-14.771-17.195-22.118c-9.042-11.459-23.655-15.013-34.31-24.696c-15.985-14.531-31.967-29.057-43.029-47.221
		c-7.344-11.543-11.381-24.941-7.831-39.551c1.535-3.472,2.261-6.054,5.729-4.521c2.581,0.726,5.247,3.147,3.715,6.617
		c-10.091,20.021,2.422,33.017,13.243,46.09c8.153,10.653,21.231,17.679,32.614,24.778c12.268,7.909,22.926,17.598,31.16,29.944
		c9.123,13.159,21.474,22.76,28.097,36.888c3.792,8.313,8.88,8.071,15.58,6.054l5.089-0.242c2.58,0.726,6.861,1.37,6.699-2.018
		c0.728-2.582-2.017-6.701-4.601-7.424c-21.956-15.091-40.686-33.74-61.028-50.606c-15.014-12.025-24.298-28.571-27.772-47.947
		c-0.243-5.087-2.18-10.088-4.118-15.092c-4.764-10.817-0.082-19.532,1.936-30.673c-0.081-1.694,2.342-4.359,4.116-2.746
		c1.775,1.613,3.472,1.535,2.827,5.811c-1.454,5.166-1.209,10.25-2.663,15.416c0.242,5.088-0.32,11.057,2.422,15.177
		c6.618,14.123,14.047,27.364,22.282,39.709c12.837,19.777,28.903,36.001,48.276,50.369c8.799,6.377,15.178,15.416,26.316,17.432
		c0.887,0.808,2.581,0.727,2.665,2.423c-1.535,3.472-4.197,1.053-5.811,2.827c3.552,3.229,14.689,5.244,17.919,1.691
		c2.422-2.665-0.162-3.389-1.939-5.004c-6.215-5.649-13.239-10.413-21.147-15.981c-14.934-10.332-26.56-22.52-39.073-35.514
		l-15.984-14.53c-7.104-6.458-9.849-10.572-11.224-21.551c2.581,0.726,5.327,4.842,9.444,2.096c2.5-0.968,4.277,0.648,3.552,3.229
		c-1.454,5.166,2.099,8.395,4.764,10.818c22.199,20.178,43.513,39.55,64.1,61.503c14.371,16.305,27.849,13.964,42.862,8.148
		c17.839-0.002,35.516-3.392,54.003-7.673c-9.204-14.853-20.023-27.929-34.871-36.563c-28.011-17.353-46.982-41.083-56.915-71.19
		c-3.07-10.898,0.726-20.423,3.629-30.754c0.726-2.581,2.342-4.359,5.811-2.827c2.581,0.726,1.858,3.31,1.939,5.004
		c0.646,13.563-2.175,25.589,1.858,38.991c3.957,11.704,11.225,21.551,19.295,30.512c11.707,13.882,25.752,23.408,40.686,33.74
		c10.573,7.991,17.84,17.837,25.104,27.686c1.858,3.311,4.521,5.729,8.799,6.378c16.952-0.809,34.71-2.505,51.503-6.704
		c-3.634-4.924-8.799-6.377-13.159-8.72c-11.222-3.713-21.715-10.009-33.018-15.414c-13.883-6.131-26.235-15.738-37.695-24.535
		c-10.574-7.991-21.148-15.981-30.919-24.863c-1.775-1.612-9.528-3.792-2.986-9.201c0.807-0.888-1.939-5.003-3.791-8.314
		c-6.381-9.039-9.446-19.934-11.706-31.724c-0.162-3.388-0.404-8.475,4.683-8.718c3.388-0.162,2.422-2.666,2.342-4.359
		c-0.161-3.388,1.371-6.862,3.793-9.527c1.614-1.775,3.311-1.859,5.088-0.243c1.775,1.613,0.968,2.5,0.243,5.087
		c-3.955,6.134-2.745,13.723,0.083,19.532c10.174,35.192,32.696,62.152,64.906,78.454c13.078,7.02,25.349,14.933,38.425,21.951
		c3.472,1.535,6.134,3.955,10.415,4.6c4.279,0.648,7.751,2.178,9.687,7.185c1.939,5.003,7.105,6.458,11.303,5.405
		c14.286-3.23,29.544-3.958,43.668-10.577c-26.316-17.433-47.71-38.499-61.757-65.863c-3.714-6.617-5.731-13.317-9.444-19.935
		c-2.905-7.507,0.243-12.754,8.719-13.157c5.087-0.243,8.637,2.983,12.915,3.631c0,0,1.775,1.613,0.969,2.501
		c0.08,1.693-2.423,2.665-4.117,2.745c-3.388,0.162-6.053-2.26-7.669-0.482c-1.535,3.472-1.29,8.557-0.243,12.754
		c2.985,9.201,7.671,18.321,13.967,25.67c10.819,13.076,19.133,27.119,35.601,33.98c2.581,0.726,5.166,1.454,8.638,2.983
		c2.58,0.726,6.861,1.37,1.939,5.004c-3.312,1.858,0.16,3.388,1.857,3.31c8.557,1.29,18.082,5.086,28.174,2.903
		c10.088-2.179,18.486-4.281,28.575-6.46c-18.811-2.5-34.55-11.945-51.015-18.804c7.106,6.459,14.934,10.332,25.349,14.932
		c-6.701,2.019-12.673,1.457-16.226-1.771c-20.102-11.784-35.276-27.198-43.19-50.607c-1.939-5.005-0.485-10.17,0.967-15.339
		c2.983-8.637,10.57-9.847,16.87-2.502c-2.342,4.358-9.363-0.402-10.736,6.457c-0.402,9.363,3.389,17.678,8.721,22.523
		c13.399,13.801,29.14,23.245,47.225,28.328c-4.439-4.036-9.607-5.49-15.742-9.442c-7.105-6.458-5.731-13.317-4.362-20.181
		c1.37-6.862,4.437-13.803,13.72-15.095c5.088-0.241,8.557,1.29,9.606,5.491c1.052,4.198-1.289,8.557-6.378,8.799
		c-7.588,1.211-4.922,3.634-2.983,8.638c2.018,6.701,6.458,10.736,10.897,14.771c2.342-4.358-0.404-8.475,0.244-12.754
		c5.245,3.149,6.379,9.041,9.122,13.16c4.683,9.122,13.4,13.8,22.764,14.203c20.504,2.42,39.955,0.645,60.136-3.718
		c28.575-6.459,57.956-13.805,87.335-21.155c4.197-1.052,9.363,0.402,14.451,0.16c-4.761,7.022-11.381,10.738-18.081,12.756
		c-15.178,2.422-29.222,10.741-43.512,13.969c-26.962,4.685-51.904,16.067-77.813,24.949c-4.197,1.052-6.135-3.955-11.142-2.019
		c-19.211,6.862-33.899,19.456-44.958,36.977c-4.684,8.718-9.361,17.436-6.295,28.331c4.037,13.398,8.316,14.047,21.715,10.009
		c7.508-2.905,13.237-7.425,18.082-12.756c2.424-2.665,3.149-5.247-1.938-5.004c-2.582-0.726-6.053-2.261-4.521-5.729
		c0.648-4.278,4.116-2.745,6.701-2.018c8.557,1.29,10.415,4.6,6.619,14.124c-2.342,4.359-4.684,8.719-6.941,14.773
		c-6.805,0.325-16.975,0.812-24.563,2.022c-4.197,1.052-8.475,0.404-12.753-0.244c-15.339-0.966-22.603-10.815-23.33-26.073
		c-0.487-28.007,17.511-42.46,37.287-55.298l2.422-2.665c-11.785,2.263-22.681,5.33-33.578,8.4
		c-6.701,2.018-9.766,8.959-14.607,14.287c-8.878,9.768-15.092,21.957-17.835,35.679c-2.018,11.141,5.651,11.625,11.785,15.58
		c0.888,0.806,5.087-0.243,3.553,3.229c-0.727,2.581-3.229,3.553-5.812,2.826c-17.194-4.279-27.607-26.714-19.859-42.376
		c3.874-7.827,11.3-12.433,18.724-17.034c4.117-2.745,6.537-5.407,10.572-9.848c-12.754-0.243-23.733,1.133-33.821,3.311
		c-1.694,0.081-3.311,1.859-3.229,3.554c-6.941,14.774-21.791,23.974-27.039,38.667c-0.648,4.279-2.983,8.638-4.519,12.108
		c-4.438,13.804-1.614,19.618,12.188,24.055c1.694-0.08,4.198-1.052,4.359,2.342c-0.726,2.581-1.454,5.167-4.761,7.021
		c-10.818,4.765-23.892-2.257-24.461-14.124c-1.861-21.148,4.112-38.423,18.642-54.409l12.914-14.207
		c3.229-3.553,1.455-5.166-1.94-5.004c-11.862,0.565-25.427,1.214-37.212,3.476c-20.181,4.361-41.168,9.609-62.396,9.771
		c-5.089,0.241-10.171,0.484-14.205,4.924c-0.807,0.888-3.229,3.553-2.342,4.359c4.601,7.424-0.402,9.362-5.406,11.302
		c-2.501,0.969-4.035,4.44-6.459,7.106c-4.842,5.327-9.684,10.653-15.417,15.178c-11.459,9.042-14.607,32.131-5.567,43.589
		c6.381,9.04,13.563,17.196,19.133,27.119c7.345,11.543,18.407,11.864,30.352,12.993c2.581,0.726,6.862,1.37,9.282-1.292
		c-6.054-2.261-7.187-8.153-10.011-13.966c-2.827-5.812-6.457-10.737-10.091-15.66c-8.231-12.35-8.801-24.217-3.476-37.213
		c4.438-13.803,10.573-27.689,17.676-39.069c2.342-4.359,6.297-10.494,13.318-5.731c2.665,2.422,4.761-7.022,6.782-0.324
		c1.938,5.004-2.178,7.75-6.297,10.493c-8.072,8.879-18.725,17.034-21.549,29.063c-1.455,5.165-1.21,10.251,0.727,15.257
		c3.07,10.897,6.943,20.906,6.621,31.963c0.324,6.782,4.844,12.512,10.172,17.354c0.888,0.808,2.665,2.423,4.278,0.647
		c5.649-6.214,14.45,0.16,20.262-2.666c-3.067,6.94-8.797,11.46-12.755,17.598c-0.807,0.888-6.782,0.324-9.282,1.292
		c-15.012,5.813-27.85,3.878-41.815-3.955c-9.605-5.489-18.322-10.166-28.736-14.77c-3.471-1.535-5.246-3.148-5.406-6.536
		c-1.373-10.977-6.863-19.212-10.013-31.806c-8.555,16.549-15.497,31.323-14.606,49.97c0.729,15.258,7.346,29.381,12.271,43.587
		c0.968,2.5,2.665,2.422,3.553,3.229c3.472,1.534,3.632,4.922,2.017,6.701c-2.422,2.665-4.196,1.052-5.976-0.564
		c-7.911-5.571-13.319-12.107-16.304-21.308c-8.075-26.798-6.786-53.196,7.337-77.654c3.148-5.246,6.297-10.493,5.973-17.274
		c-0.243-5.089,4.924-3.634,6.458-7.105c4.6-10.415,12.672-19.295,19.05-28.095c1.612-1.774,3.229-3.553,2.261-6.053
		c-2.665-2.424-4.198,1.052-5.004,1.939c-16.385,12.671-30.109,27.77-43.829,42.863c-4.843,5.328-8.797,11.462-10.978,19.216
		c-0.726,2.58-5.57,7.911,3.793,8.313c2.581,0.727,1.939,5.005,0.323,6.782c-1.613,1.774-3.955,6.134-8.395,2.098
		c-4.441-4.035-5.732-13.317-0.97-20.339c3.874-7.827,8.635-14.854,14.284-21.069l33.091-36.407
		c3.229-3.552,10.171-0.484,10.653-8.153c-15.821,6.703-34.386,9.286-48.271,20.989c-12.27,9.933-23.732,18.972-33.339,31.322
		c-7.183,9.687-10.009,21.716-12.834,33.744c-2.096,9.443,2.583,18.563,4.685,26.962c1.939,5.004,3.069,10.898,7.51,14.935
		c7.187,8.151,16.066,16.224,28.816,16.463c3.388-0.161,7.669,0.483,6.701-2.018c-0.161-3.388,0.647-4.277,4.923-3.632
		c2.582,0.726,3.553,3.228,4.521,5.729c0.161,3.388-0.564,5.975-3.955,6.133c-8.395,2.099-16.951,0.809-24.778-3.064
		c-11.303-5.406-23.409-9.928-33.176-18.806c-4.441-4.036-8.073-8.959-9.204-14.853c-1.373-10.977-6.054-20.102-5.734-31.157
		c0.968-15.339,6.295-28.331,16.061-37.292c21.872-22.28,46.572-38.751,77.731-44.48c7.589-1.211,14.206-4.926,22.601-7.023
		c1.694-0.081,3.31-1.859,3.229-3.553c-0.969-2.5-2.664-2.422-3.472-1.535c-5.894,1.131-10.977,1.373-16.064,1.614
		c-1.694,0.081-3.388,0.162-4.923,3.634s-6.536,5.408-10.17,0.484c-0.968-2.5-2.665-2.422-4.278-0.647
		c-12.35,8.232-26.962,4.685-40.438,7.025c-9.282,1.292-19.532,0.083-28.899-0.322c-4.278-0.647-6.7,2.018-8.232,5.491
		c-10.168,18.324-26.715,27.607-43.185,38.59c-12.35,8.231-26.478,14.854-36.968,26.396c-7.265,7.992-12.755,17.6-16.545,27.123
		c-0.727,2.581-2.342,4.358-4.842,5.327c-3.714-6.616-1.456-12.673,1.691-17.919c9.28-19.13,25.749-30.111,41.325-41.899
		c13.159-9.122,28.006-18.325,41.165-27.448c4.924-3.634,8.879-9.767,14.607-14.287c-15.338-0.967-29.785-1.129-43.431-2.177
		c-11.057-0.321-12.269,9.933-17.918,16.146c-15.898,22.848-31.881,43.996-54.886,60.385c-13.967,10.011-28.736,20.91-35.516,39.073
		c-3.712,11.221-4.114,20.585,2.344,31.322c8.396,15.739,28.413,25.826,45.284,23.323c3.389-0.162,6.781-0.323,9.04-6.379
		c0.726-2.582,7.345-6.299,9.93-5.57c3.473,1.535,2.018,6.7,1.372,10.976c-2.097,9.445-7.909,12.268-15.579,11.785
		c-18.725-0.804-35.032-4.277-50.048-16.3c-14.207-12.913-15.742-27.284-14.856-44.315c2.097-27.287,19.289-40.846,40.921-50.376
		c5.003-1.938,9.039-6.38,11.381-10.739c7.991-10.573,16.062-19.453,26.714-27.606c5.73-4.521,7.991-10.574,12.834-15.9
		c3.229-3.554,6.377-8.8,9.606-12.353c2.422-2.665,3.147-5.247-1.13-5.895c-14.529-1.855-29.868-2.823-43.508-3.873
		c-1.694,0.08-3.389,0.162-4.197,1.052c-15.336,16.873-37.856,25.59-51.415,44.078c-12.026,15.014-20.581,31.563-23.889,51.26
		c-1.371,6.863-3.631,12.916-5.002,19.778c-1.535,3.472-1.37,6.862-0.321,11.057c1.21,7.589,4.682,9.124,13.077,7.02
		c1.694-0.081,3.31-1.858,5.088-0.242c-3.068,6.94-12.431,6.538-12.832,15.901c0.081,1.693-4.279-0.648-5.247-3.149
		c-10.171-17.354-9.367-36.079-6.06-55.776c2.019-11.14,6.699-19.855,13.964-27.849c6.458-7.104,11.22-14.126,16.791-22.039
		c7.103-11.381,17.837-17.84,28.492-25.99c5.729-4.521,12.35-8.233,16.305-14.373c-6.134-3.955-15.258,0.728-20.584-4.115
		c-7.912-5.57-11.141-2.018-15.012,5.813c-8.314,21.633-22.758,39.312-41.646,52.956c-7.424,4.602-12.995,12.513-18.565,20.425
		c-10.332,14.933-28.654,22.604-36.321,39.959c-0.726,2.582-2.342,4.359-3.068,6.941c0.243,5.087-2.261,6.053-5.729,4.521
		c-3.472-1.536-1.052-4.198-0.324-6.782c0.807-0.888,0.726-2.581-0.162-3.388c-3.229,3.552-8.233,5.492-7.91,12.268
		c0.081,1.694-2.341,4.359-3.229,3.553c-2.582-0.726-2.746-4.117-1.939-5.004c1.454-5.166,3.712-11.222,7.829-13.968
		c10.652-8.154,19.531-17.922,27.524-28.499c6.377-8.799,15.417-15.179,24.376-23.252c-7.67-0.482-11.706,3.957-15.822,6.704
		c-14.853,9.203-30.833,12.515-45.767,20.023c-16.628,7.591-33.337,13.481-46.254,27.692c-1.613,1.774-3.874,7.827-8.314,3.792
		c-4.44-4.036,1.371-6.862,2.906-10.335c-7.669-0.482-10.089,2.179-10.572,9.849c-0.727,20.422,3.635,40.603,16.309,56.985
		c10.897,14.771,26.64,24.214,43.915,30.188c19.856,6.698,40.283,7.422,60.382,1.367c5.895-1.13,11.705-3.958,13.076-10.82
		c0.726-2.581,3.229-3.552,5.81-2.826c2.582,0.726,1.859,3.31,1.053,4.197c-0.807,0.887-1.614,1.774-0.727,2.581
		c3.069,10.898-4.519,12.109-12.107,13.32c-15.983,3.31-31.076,7.428-47.382,3.961c-24.056-5.65-47.303-12.184-65.306-33.414
		c-11.707-13.883-18.407-29.707-25.106-45.525c-1.939-5.004-6.538-12.43,0.805-18.726c0.807-0.889,0.647-4.279-0.243-5.088
		c-6.379-9.04,0.885-17.031,1.287-26.395c0.16-14.451,5.405-29.142,13.317-41.412c5.49-9.606,11.865-18.408,18.239-27.204
		l0.807-0.887c15.66-10.091,28.573-24.299,46.007-32.776c5.811-2.826,10.817-4.763,16.547-9.283
		c5.729-4.521,3.955-6.135-2.099-8.396c-1.694,0.081-3.471-1.534-5.165-1.454c-4.279-0.647-7.75-2.178-9.202,2.986
		c-1.455,5.165,5.166,1.453,6.215,5.648l-1.614,1.774c-24.54,2.02-46.816,15.824-69.419,22.852
		c-13.399,4.038-25.748,12.27-33.577,26.237c-1.535,3.472-3.955,6.133-1.208,10.25c1.859,3.311,5.087-0.243,8.557,1.29
		c-2.423,2.664-3.067,6.939-8.233,5.491c-2.581-0.726-5.088,0.243-3.229,3.553c0.888,0.808,3.472,1.536,0.969,2.501
		c-0.807,0.888-3.31,1.857-5.088,0.242c-0.887-0.807-2.666-2.422-2.746-4.116c0.321-11.057,1.452-23.004,10.411-31.077
		c15.495-13.481,32.771-25.351,51.902-33.905c7.508-2.904,15.983-3.309,23.487-6.217c2.5-0.969,4.197-1.052,6.701-2.018
		c5.004-1.939,10.898-3.069,8.878-9.768c-1.13-5.895-8.637-2.983-12.916-3.631c-2.581-0.726-5.004,1.939-7.508,2.904
		c-13.159,9.123-28.171,14.936-43.105,22.445c-6.617,3.714-14.205,4.925-20.018,7.748c-28.252,13.242-51.095,33.019-58.923,64.825
		c-2.825,12.028-1.614,19.617,6.301,25.184c0.888,0.807,2.666,2.423,4.359,2.342c3.388-0.162,4.359,2.342,3.633,4.924
		c-0.726,2.58-2.261,6.053-6.536,5.407c-4.279-0.647-8.557-1.289-11.302-5.406c-6.458-10.736-9.527-21.634-5.004-33.739
		c5.808-20.666,16.87-38.184,29.618-55.782c6.377-8.799,15.417-15.179,25.344-20.745c-7.589,1.211-15.177,2.422-21.874,4.442
		c-28.494,8.152-58.119,10.418-87.018,10.095c-12.754-0.243-24.702-1.367-37.132,5.171c-4.116,2.745-7.423,4.602-10.652,8.152
		c-0.807,0.888-2.342,4.359-4.116,2.747c-1.775-1.613-0.162-3.389-0.243-5.089c-1.211-7.587,1.208-10.249,7.91-12.266
		c2.5-0.969,4.197-1.053,6.701-2.018c-6.215-5.649-15.338-0.966-20.744-7.506c0.726-2.581,2.423-2.665,3.31-1.858
		c17.274,5.974,34.388,8.553,52.627-0.813c9.93-5.571,20.826-8.638,30.833-12.516c-10.169,0.485-21.311-1.533-31.402,0.648
		c27.849-3.877,55.776-6.059,82.492-15.828c-7.75-2.177-38.343-2.418-44.152,0.409c-15.898,5.005-32.772,7.511-49.643,10.015
		c-15.176,2.421-29.543,3.958-43.833,7.186c-10.089,2.18-20.019,7.749-30.026,11.629c-6.701,2.018-12.511,4.844-20.099,6.055
		c6.377-8.799,16.547-9.284,27.364-14.048c-6.862-1.37-12.834-1.938-18.811-2.502c-2.582-0.726-4.278-0.647-6.053-2.26
		c-1.775-1.614-1.858-3.312-1.939-5.005c0.726-2.581,3.31-1.858,5.088-0.242c12.997,5.325,26.479,2.984,39.149,1.531
		c16.065-1.615,30.269-6.54,44.474-11.465c1.694-0.08,3.31-1.859,4.278,0.647c-2.341,4.359-8.476,0.404-10.736,6.457
		c11.057,0.322,21.149-1.86,31.237-4.039c7.588-1.211,14.286-3.23,22.68-5.33c1.694-0.081,3.388-0.161,3.31-1.858
		c0.726-2.582-1.858-3.31-3.553-3.229c-10.415-4.6-18.323-10.166-26.315-17.431c-1.775-1.614-2.582-0.727-4.278-0.648
		c-25.184,6.3-51.418,8.4-77.489,13.889c-11.786,2.263-22.681,5.329-34.551,5.895c5.811-2.826,11.705-3.956,17.515-6.783
		c-2.665-2.422-5.975-0.564-7.669-0.482c-2.581-0.726-5.975-0.564-6.133-3.955c-0.162-3.388,3.229-3.553,5.81-2.827
		c22.927-0.245,45.689-3.881,68.612-4.121c8.476-0.404,16.064-1.616,24.459-3.713c1.694-0.081,3.388-0.161,4.117-2.746
		c0.726-2.582-1.052-4.197-2.746-4.116c-1.774-1.613-4.359-2.342-6.94-3.068c-20.181,4.361-39.879,1.054-59.33,2.83
		c-14.37,1.534-29.544,3.959-44.801,4.688c-10.17,0.484-19.451,1.775-28.814,1.372c-3.388,0.162-6.782,0.324-7.75-2.177
		c-1.858-3.31,2.423-2.665,4.036-4.439c1.694-0.081,1.455-5.166,4.842-5.327c-0.945-2.48,1.556-3.448,3.25-3.529L112.503,665.57z
		 M416.184,798.897c4.923-3.633,10.817-4.764,17.599-5.086c8.476-0.405,18.725,0.804,26.313-0.407
		c21.955-2.747,43.668-10.578,63.688-18.326c18.322-7.671,27.767-23.41,42.455-36.004c-16.304-3.47-33.339-4.359-47.222-10.49
		c-11.303-5.406-19.532,0.082-26.798,8.075c-5.649,6.215-12.269,9.933-19.776,12.837c-6.701,2.018-13.398,4.037-18.322,7.671
		c-13.075,10.818-26.23,19.938-35.757,33.984C415.938,793.814,412.631,795.669,416.184,798.897
		c-0.806,0.888-2.501,0.969-2.423,2.666c-12.025,15.014-12.911,32.046-12.912,49.888c0.162,3.389,2.665,2.423,5.166,1.455
		c5.811-2.827,9.93-5.571,16.628-7.591c12.511-4.844,25.91-8.882,38.34-15.421c14.125-6.618,24.619-18.164,36.968-26.396
		c4.923-3.634,9.846-7.267,15.578-11.784c-9.363-0.401-15.982,3.309-21.874,4.442c-17.677,3.389-37.212,3.476-53.837,11.063
		c-2.501,0.969-5.894,1.13-5.166-1.455c1.29-8.556-3.634-4.923-6.941-3.066c-9.204,2.983-9.204,2.983-9.528-3.799V798.897z
		 M285.889,667.495c-1.775-1.613-2.666-2.422-4.359-2.341c-11.302-5.406-17.76-16.143-25.914-26.797
		c-1.774-1.612-5.408-6.535-2.905-7.507c4.842-5.327,2.019-11.141,4.279-17.193c1.371-6.863,4.519-12.108,11.945-16.708
		c10.653-8.154,23.409-7.914,37.051-6.863c11.947,1.13,20.828,9.202,20.505,20.259c0.485,10.169-6.942,14.774-14.449,17.68
		c-3.31,1.857-4.036,4.439-3.874,7.827c1.052,4.198,2.018,6.701,3.876,10.011c4.038,13.398,2.583,18.565-10.735,24.297
		c1.694-0.082,3.472,1.534,4.278,0.647c23.814,0.562,34.224-12.674,40.842-34.229c2.177-7.751,3.47-16.305-1.939-22.847
		c-11.864-17.272-24.621-35.354-48.516-37.61c-14.528-1.857-28.813,1.374-38.501,12.033c-10.494,11.544-15.819,24.542-10.813,40.441
		C250.13,647.962,261.834,661.846,285.889,667.495L285.889,667.495z M361.851,728.434l1.775,1.612
		c20.261-2.667,35.921-12.758,50.529-27.046c1.613-1.775,0.647-4.278-1.052-4.197c-6.781,0.323-10.415-4.6-14.045-9.526
		c-2.666-2.422-3.472-1.534-5.088,0.243c-0.806,0.888-2.422,2.665-0.647,4.279c1.775,1.612,5.088-0.243,0.081,1.693
		c-5.81,2.826-13.563,0.646-18.406,5.975c-4.036,4.44-9.04,6.38-13.237,7.425c-6.701,2.018-12.592,3.151-18.488,4.281
		c-28.656,4.766-55.372,14.535-82.979,23.493c-4.197,1.052-7.507,2.905-10.736,6.458c26.394,1.287,51.015,0.962,76.199-5.332
		c14.286-3.231,29.382-7.347,41.651-17.279c6.537-5.408,12.107-13.32,19.372-21.313c-6.04,15.589-16.776,22.046-24.928,29.231
		L361.851,728.434z M282.006,568.289c-2.746-4.117-5.247-3.148-8.637-2.984c-14.286,3.231-30.269,6.54-44.555,9.772
		c-10.088,2.178-18.565,20.425-13.88,29.545c5.651,11.624,14.611,21.39,21.069,32.126c0.968,2.5,3.633,4.922,7.021,4.762
		C225.992,604.943,244.153,576.043,282.006,568.289L282.006,568.289z M764.419,886.775c-24.947-42.134-6.061-73.616,24.048-101.385
		C735.593,816.792,736.166,864.335,764.419,886.775z M325.362,675.806c11.141,2.018,22.04-1.053,32.128-3.231
		c4.197-1.052,6.617-3.714,6.377-8.8c0.403-9.362-5.896-16.708-10.576-25.828C346.348,652.718,342.879,669.021,325.362,675.806
		L325.362,675.806z M177.156,631.903c-17.193-4.278-33.338-4.357-50.37-5.242c-9.363-0.402-16.79,4.195-19.776,12.836
		C131.55,637.477,154.47,637.234,177.156,631.903z M568.738,702.423c10.738,11.382,22.28,21.872,39.475,26.151
		c-4.116,2.746-6.781,0.324-10.17,0.486c-1.693,0.08-4.359-2.343-4.197,1.052c0.08,1.693,1.052,4.196,2.746,4.115
		c5.975,0.564,11.222,3.712,18.081,5.087c5.976,0.563,11.948,1.13,17.921,1.69C612.33,725.828,588.999,717.597,568.738,702.423
		L568.738,702.423z M362.661,745.382c20.019-7.749,41.894-12.189,59.892-26.644C400.679,723.18,380.743,732.626,362.661,745.382z
		 M485.203,821.088c20.019-7.749,38.989-19.7,55.29-34.067C521.362,795.576,500.539,804.215,485.203,821.088z M286.854,598.637
		c-17.758,1.696-23.41,7.914-22.678,23.167c5.894-1.13,0.243-12.754,9.684-10.653c-0.888-0.807-0.081-1.694-0.968-2.501
		c-0.968-2.5,0.647-4.278,3.229-3.553C283.141,609.86,283.709,603.887,286.854,598.637L286.854,598.637z M407.136,716.076
		c10.977-1.372,19.452-1.776,25.911-8.882C419.969,700.176,417.469,701.144,407.136,716.076z M347.227,528.65
		c0.807-0.888,0.807-0.888,2.5-0.969c-6.538-12.43-8.963-27.603-23.008-37.13C333.343,504.675,339.882,517.106,347.227,528.65
		L347.227,528.65z M332.549,683.958c4.278,0.647,5.975,0.563,7.669,0.483c10.251,1.208,20.339-0.97,30.431-3.152
		c2.5-0.969,3.309-1.859,2.341-4.359c-0.888-0.807-0.161-3.388-2.665-2.423C358.864,683.552,345.948,679.92,332.549,683.958
		L332.549,683.958z M867.882,598.111c-0.966,15.338,5.572,27.769,17.033,36.564C876.764,624.021,874.42,610.54,867.882,598.111z
		 M306.148,611.312c4.278,0.647,7.912,5.57,11.947,1.131c1.613-1.774,2.261-6.053-0.404-8.476
		c-3.633-4.923-9.687-7.184-15.582-6.055c3.472,1.535,8.557,1.29,9.606,5.49C313.655,608.406,306.792,607.035,306.148,611.312
		L306.148,611.312z M1079.787,766.396c3.631-12.915,10.008-21.715,16.302-32.21C1086.162,739.759,1079.14,752.833,1079.787,766.396z
		 M589.809,734.55c-6.379-9.039-13.4-13.801-22.2-20.179c2.827,5.811,13.159,8.719,3.309,15.983
		C576.894,730.918,582.949,733.177,589.809,734.55z M900.994,811.452c-2.905,10.334-0.728,20.424,6.301,25.185
		C907.695,827.277,904.787,819.767,900.994,811.452z M302.598,643.761c-1.775-1.612-4.359-2.342-6.862-1.37
		c-3.311,1.859,0.162,3.388,1.939,5.004c1.858,3.31,7.021,4.763,2.986,9.202c-0.807,0.887-0.726,2.581,0.968,2.5
		c1.694-0.08,2.5-0.968,3.31-1.858C307.283,652.882,306.231,648.685,302.598,643.761L302.598,643.761z M730.015,646.311
		c2.098,8.396,7.59,16.628,12.997,23.165C741.718,660.197,735.426,652.85,730.015,646.311z M479.054,638.743
		c-3.714-6.617-9.042-11.46-14.373-16.306C465.892,630.027,473.722,633.898,479.054,638.743z M720.33,674.807
		c5.327,4.842,10.654,9.685,18.408,11.865C733.41,681.829,727.193,676.177,720.33,674.807z M1048.224,745.815
		c-9.766,8.961-9.766,8.961-7.667,17.356C1042.008,758.003,1043.462,752.836,1048.224,745.815z"/>
	<path d="M710.739,847.71c-11.786,2.263-19.858,11.143-30.672,15.903c-21.635,9.527-44.236,16.549-67.32,13.403
		c-1.694,0.081-3.388,0.161-4.278-0.647c-1.694,0.081-2.581-0.726-3.553-3.229c-0.081-1.693,0.726-2.581,2.423-2.665
		c2.501-0.968,6.7-2.018,9.282-1.292c30.674,1.937,59.168-6.217,83.705-26.083c17.194-13.562,30.024-29.466,41.005-48.678
		c7.103-11.38,15.091-21.956,26.637-29.305c4.116-2.746,8.476-0.404,12.593-3.15c-0.483,7.669-4.52,12.109-8.555,16.549
		c-12.994,12.514-22.521,26.559-31.156,41.415c-3.148,5.246-8.878,9.767-12.913,14.206c-12.106,13.32-9.12,40.36,5.007,51.58
		c1.775,1.612,4.358,2.343,5.165,1.455c9.124-4.684,11.304,5.404,16.55,8.554c1.775,1.613,1.858,3.31-1.535,3.472
		c-3.389,0.162-6.782,0.324-10.251-1.209c-6.053-2.261-12.996-5.325-19.049-7.586c-6.941-3.068-9.768-8.879-10.897-14.773
		C710.012,868.131,709.528,857.963,710.739,847.71L710.739,847.71z"/>
	<path d="M852.633,705.872c-25.027-25.988-45.935-54.726-52.8-91.773c-3.23-14.287-3.877-27.85,1.367-42.539
		c5.974-17.276,17.432-26.316,33.338-31.323c5.003-1.939,10.088-2.179,14.286-3.231c4.197-1.052,7.669,0.483,8.718,4.683
		c1.939,5.004-3.229,3.553-4.035,4.44c-7.104,11.381-20.663,12.03-30.513,19.294c-13.076,10.82-20.018,25.588-15.012,41.493
		c3.23,14.286,5.652,29.463,13.077,42.699c7.346,11.543,11.383,24.942,21.15,33.819c13.32,12.108,23.411,27.768,43.108,31.075
		c2.581,0.726,6.053,2.262,1.13,5.895c0.888,0.807,1.774,1.612,1.857,3.311c0.888,0.806,2.666,2.422,1.859,3.31
		c0.08,1.693-2.422,2.665-4.197,1.052c-2.581-0.726-5.088,0.242-7.75-2.178c-7.178-8.161-18.399-11.873-25.585-20.024V705.872z"/>
	<path d="M240.031,543.107c-8.395,2.099-15.338-0.966-18.969-5.892c-15.259-17.111-32.209-34.144-44.155-53.11
		c-14.692-23.083-32.695-44.313-45.774-69.172c-4.683-9.123-5.248-20.987-9.931-30.11c-0.968-2.5,0.647-4.278,3.148-5.246
		c2.5-0.969,5.087-0.243,5.246,3.148c-0.243,12.754,7.83,21.712,13.403,31.64c6.619,14.124,15.664,25.586,23.895,37.935
		c15.583,23.894,35.276,45.04,52.476,67.154C225.663,526.804,234.462,533.182,240.031,543.107L240.031,543.107z M219.688,526.242
		c-10.897-14.772-21.797-29.542-35.118-41.649C194.664,500.25,206.368,514.135,219.688,526.242z"/>
	<path d="M949.416,668.976c-12.354-9.606-18.085-22.925-26.319-35.271c-3.633-4.924-3.957-11.705-5.088-17.6
		c-0.161-3.389,2.262-6.054,3.955-6.135c4.198-1.052,1.858,3.311,2.827,5.811c0.565,11.864,7.749,20.019,14.935,28.172
		c20.587,21.953,45.855,35.191,72.653,44.953c6.941,3.068,12.269,7.91,19.215,10.979c0.888,0.807,2.665,2.422,2.746,4.116
		c-0.726,2.582-3.311,1.859-5.004,1.939c-8.556-1.29-18.004-3.39-26.638-6.375C981.947,692.063,965.317,681.809,949.416,668.976
		L949.416,668.976z"/>
	<path d="M873.461,732.912c-13.883-6.132-27.771-12.267-40.119-21.869c-18.485-13.562-35.357-28.897-49.807-46.893
		c-3.633-4.924-7.267-9.847-11.706-13.883c-7.993-7.265-4.926-14.205-1.862-21.149c1.614-1.774,2.424-2.665,5.004-1.939
		c3.389-0.161,2.665,2.423,1.939,5.005c-0.243,12.754,5.33,22.681,14.291,32.446c11.544,10.494,18.97,23.73,32.132,32.447
		c9.686,7.184,20.101,11.783,30.594,18.079c4.359,2.342,8.638,2.984,9.768,8.879c0.08,1.693,4.439,4.035,7.021,4.761
		C874.106,728.632,875.885,730.248,873.461,732.912L873.461,732.912z"/>
	<path d="M943.449,757.607c4.842-5.327,13.074-10.818,23.247-11.301c1.693-0.081,4.197-1.052,5.165,1.454
		c0.081,1.694-1.535,3.472-2.342,4.359s-1.612,1.773-3.311,1.859c-20.099,6.054-26.229,19.938-27.846,39.555
		c-0.401,9.363,1.696,17.758,7.916,23.41c2.665,2.422,5.491,8.233,11.221,3.712c0.807-0.887,3.389-0.161,3.473,1.535
		c0.16,3.388,2.826,5.812,2.178,10.089c-0.726,2.582-3.31,1.859-4.197,1.052c-5.165-1.454-12.754-0.243-17.193-4.279
		c-2.665-2.422-5.247-3.147-7.105-6.457C924.483,805.236,928.113,774.482,943.449,757.607L943.449,757.607z"/>
	<path d="M349.813,565.055c-11.303-5.406-15.259-17.111-22.443-25.266c-3.633-4.923-8.073-8.959-10.01-13.966
		c-14.209-30.752-38.994-51.66-63.855-74.257c-8.88-8.072-17.034-18.725-29.063-21.549c-0.887-0.807-2.665-2.422-1.858-3.31
		c1.613-1.775,3.31-1.858,5.895-1.13c4.359,2.341,8.718,4.684,12.267,7.909c21.232,17.678,40.766,35.434,57.072,56.742
		c17.196,22.118,33.582,45.12,48.358,69.9c2.59,0.729,2.668,2.425,3.637,4.925L349.813,565.055z"/>
	<path d="M585.377,819.71c12.269-9.933,24.457-21.552,36.725-31.483c4.116-2.746,6.458-7.105,10.572-9.849l8.071-8.88
		c2.422-2.665,6.458-7.104,10.011-3.875c3.553,3.228-3.068,6.938-5.571,7.911c-4.923,3.633-9.765,8.961-13.801,13.4
		c-7.104,11.38-16.868,20.341-27.523,28.498c-3.311,1.859-5.73,4.521-6.459,7.105c-2.261,6.052-9.201,2.985-14.124,6.619
		c-1.614,1.774-2.666-2.423-1.939-5.004L585.377,819.71L585.377,819.71z"/>
	<path d="M180.135,516.232c-25.753-23.408-48.192-48.671-55.784-83.137c-0.081-1.694-0.968-2.501-1.052-4.198
		c0.726-2.581-2.017-6.701,3.068-6.94c3.388-0.161,2.746,4.117,2.827,5.811c4.685,26.962,17.602,48.432,35.524,67.962
		C171.013,503.073,175.615,510.502,180.135,516.232L180.135,516.232z"/>
	<path d="M112.503,665.57c-1.694,0.081-5.087,0.243-6.782,0.323c-5.246-3.147-11.057-0.321-15.338-0.965
		c-2.581-0.727-5.087,0.242-5.246-3.148c-0.162-3.389,3.31-1.859,5.811-2.828c19.617,1.615,38.991-1.858,58.441-3.635
		c16.065-1.615,31.323-2.344,47.383-3.962c-3.229,3.553-6.617,3.715-10.011,3.876c-23.652,2.826-46.495,4.769-69.26,8.4
		C115.815,663.714,114.199,665.492,112.503,665.57L112.503,665.57z"/>
	<path d="M753.027,736.958c-10.334-2.905-19.05-7.587-23.813-18.403C737.125,724.126,745.037,729.696,753.027,736.958z"/>
	<path d="M728.808,710.079c-12.108-4.519-16.065-16.224-24.058-23.487C713.552,692.971,720.735,701.12,728.808,710.079z"/>
	<path d="M534.274,745.694c-27.2,17.438-58.197,26.562-89.192,35.684C474.137,767.251,505.135,758.126,534.274,745.694z"/>
</g>
</svg>
